# xmcd
#
# Track frame offsets: 
#        150
#        16998
#        37052
#        56956
#        74477
#        93717
#        110801
#        124503
#        144457
#        160639
#        181419
#
# Disc length: 2691 seconds
#
# Revision: 0
# Processed by: cddbd v1.5.2PL0 Copyright (c) Steve Scherf et al.
# Submitted via: ExactAudioCopyFreeDBPlugin 1.0
#
DISCID=a00a810b
DTITLE=Bobby Rush - Show you a good time
DYEAR=2011
DGENRE=Blues
TTITLE0=Show You A Good Time
TTITLE1=Sniffer
TTITLE2=My Friend
TTITLE3=In My Dippins
TTITLE4=I Am Good As Gone
TTITLE5=I Gotcha
TTITLE6=Broken Hearted Man
TTITLE7=Let Me In Your House
TTITLE8=Playin' Me Crazy
TTITLE9=I Got A Story To Tell
TTITLE10=Jody Didn't Take Your Woman (Bonus Track)
EXTD=
EXTT0=
EXTT1=
EXTT2=
EXTT3=
EXTT4=
EXTT5=
EXTT6=
EXTT7=
EXTT8=
EXTT9=
EXTT10=
PLAYORDER=
